<?xml version="1.0" encoding="utf-8"?>
<!-- Generator: Adobe Illustrator 28.2.0, SVG Export Plug-In . SVG Version: 6.00 Build 0)  -->
<svg version="1.1" id="Layer_1" xmlns="http://www.w3.org/2000/svg" xmlns:xlink="http://www.w3.org/1999/xlink" x="0px" y="0px"
	 viewBox="0 0 24 24" style="enable-background:new 0 0 24 24;" xml:space="preserve">
<style type="text/css">
	.st0{fill:#FCFCFC;}
</style>
<g>
	<g>
		<g>
			<g>
				<path class="st0" d="M4.7,21.6c-0.7,0-1.3-0.3-1.8-0.8c-0.5-0.5-0.8-1.1-0.8-1.8c0-0.7,0.3-1.3,0.8-1.8C3,17,3.1,16.9,3.3,16.8
					c0,0,0.1-0.1,0.1-0.1c0.1-0.1,0.2-0.1,0.3-0.1c0,0,0.1,0,0.2-0.1c0.1,0,0.2-0.1,0.3-0.1c0,0,0,0,0.1,0c0,0,0,0,0,0l0.6,0
					c0.1,0,0.2,0,0.2,0l0,0c0,0,0,0,0.1,0l0,0l0,0h0c0,0,0.1,0,0.1,0c1,0,2-0.4,2.7-1.2c0.7-0.7,1.1-1.7,1.1-2.7l0,0l0,0
					c0,0,0-0.1,0-0.1c0,0,0-0.1,0-0.1l0-0.1c0,0,0-0.1,0-0.1l0-0.6c0,0,0,0,0,0l0,0c0-0.1,0.1-0.2,0.1-0.3c0-0.1,0-0.1,0.1-0.2
					c0-0.1,0.1-0.2,0.2-0.3c0,0,0-0.1,0.1-0.1c0.1-0.2,0.2-0.3,0.3-0.4c0.5-0.5,1.1-0.8,1.8-0.8c0.7,0,1.3,0.3,1.8,0.8
					c1,1,1,2.7,0,3.7c-0.1,0.1-0.2,0.2-0.4,0.3c0,0-0.1,0.1-0.1,0.1c-0.1,0.1-0.2,0.1-0.3,0.1c-0.1,0-0.1,0-0.2,0.1
					c-0.1,0-0.2,0.1-0.3,0.1l-0.1,0c0,0,0,0,0,0l-0.6,0c-0.1,0-0.1,0-0.2,0l-0.1,0c0,0,0,0-0.1,0l0,0l0,0h0c0,0-0.1,0-0.1,0
					c-1,0-2,0.4-2.7,1.2c-0.7,0.7-1.1,1.7-1.1,2.7l0,0l0,0c0,0,0,0.1,0,0.1c0,0,0,0.1,0,0.1c0,0,0,0.1,0,0.1c0,0,0,0.1,0,0.1v0
					l0,0.6c0,0,0,0.1,0,0.1c0,0.1-0.1,0.2-0.1,0.3c0,0.1,0,0.1-0.1,0.1c0,0.1-0.1,0.2-0.1,0.3c0,0-0.1,0.1-0.1,0.1
					c-0.1,0.1-0.2,0.3-0.3,0.4C6.1,21.3,5.4,21.6,4.7,21.6L4.7,21.6z"/>
			</g>
			<path class="st0" d="M11.8,21.6c-0.7,0-1.3-0.3-1.8-0.8c-0.5-0.5-0.8-1.1-0.8-1.8c0-0.7,0.3-1.3,0.8-1.8c0.1-0.1,0.2-0.2,0.4-0.3
				c0,0,0.1-0.1,0.1-0.1c0.1-0.1,0.2-0.1,0.3-0.1c0.1,0,0.1,0,0.2-0.1c0.1,0,0.2-0.1,0.3-0.1c0,0,0.1,0,0.1,0l0.6,0
				c0.1,0,0.1,0,0.2,0l0,0c0,0,0.1,0,0.1,0c0,0,0,0,0,0l0,0l0,0c0,0,0.1,0,0.1,0c1,0,2-0.4,2.7-1.2c0.7-0.7,1.1-1.7,1.1-2.7l0-0.1
				l0,0c0,0,0,0,0,0c0,0,0-0.1,0-0.1l0-0.1c0,0,0-0.1,0-0.1l0-0.6c0,0,0-0.1,0-0.1c0-0.1,0.1-0.2,0.1-0.3c0-0.1,0-0.1,0.1-0.2
				c0-0.1,0.1-0.2,0.1-0.3l0,0c0,0,0-0.1,0.1-0.1c0.1-0.2,0.2-0.3,0.3-0.4c0.5-0.5,1.1-0.8,1.8-0.8c0.7,0,1.3,0.3,1.8,0.8
				c1,1,1,2.7,0,3.7c-0.1,0.1-0.2,0.2-0.4,0.3c0,0-0.1,0-0.1,0.1l0,0c-0.1,0.1-0.2,0.1-0.3,0.1c-0.1,0-0.1,0-0.2,0.1
				c-0.1,0-0.2,0.1-0.3,0.1c0,0,0,0-0.1,0c0,0,0,0,0,0l-0.6,0c-0.1,0-0.2,0-0.3,0c0,0-0.1,0-0.1,0c0,0,0,0,0,0l0,0c0,0-0.1,0-0.1,0
				c-1,0-2,0.4-2.7,1.2c-0.7,0.7-1.1,1.7-1.1,2.7l0,0l0,0c0,0,0,0.1,0,0.1c0,0,0,0.1,0,0.1c0,0,0,0.1,0,0.1c0,0,0,0.1,0,0.1l0,0.6
				c0,0,0,0.1,0,0.1c0,0.1-0.1,0.2-0.1,0.3c0,0,0,0.1-0.1,0.1l0,0c0,0.1-0.1,0.2-0.1,0.3c0,0-0.1,0.1-0.1,0.1
				c-0.1,0.1-0.2,0.3-0.3,0.4C13.1,21.3,12.5,21.6,11.8,21.6L11.8,21.6z"/>
			<path class="st0" d="M4.7,14.6c-0.7,0-1.3-0.3-1.8-0.8c-0.5-0.5-0.8-1.1-0.8-1.8c0-0.7,0.3-1.3,0.8-1.8C3,10,3.1,9.9,3.3,9.8
				c0,0,0.1-0.1,0.1-0.1c0.1-0.1,0.2-0.1,0.3-0.1c0.1,0,0.1,0,0.2-0.1c0.1,0,0.2-0.1,0.3-0.1l0.1,0c0,0,0,0,0,0l0.6,0
				c0.1,0,0.2,0,0.2,0l0,0c0,0,0.1,0,0.1,0c0,0,0,0,0,0l0,0l0,0c0,0,0.1,0,0.1,0c1,0,2-0.4,2.7-1.2c0.7-0.7,1.1-1.7,1.1-2.7l0,0l0,0
				c0,0,0-0.1,0-0.1c0,0,0-0.1,0-0.1l0-0.1c0,0,0-0.1,0-0.1l0-0.5l0,0v0c0,0,0-0.1,0-0.1c0-0.1,0.1-0.2,0.1-0.3c0,0,0-0.1,0.1-0.1
				c0-0.1,0.1-0.2,0.1-0.3l0,0c0,0,0-0.1,0.1-0.1c0.1-0.1,0.2-0.3,0.3-0.4c0.5-0.5,1.1-0.8,1.8-0.8c0.7,0,1.3,0.3,1.8,0.8
				c1,1,1,2.7,0,3.7c-0.1,0.1-0.2,0.2-0.4,0.3c0,0-0.1,0-0.1,0.1l0,0c-0.1,0.1-0.2,0.1-0.3,0.1c-0.1,0-0.1,0-0.2,0.1
				c-0.1,0-0.2,0.1-0.3,0.1c0,0,0,0-0.1,0c0,0,0,0,0,0l-0.6,0c-0.1,0-0.2,0-0.2,0l0,0c0,0-0.1,0-0.1,0c0,0,0,0,0,0l0,0l0,0
				c0,0-0.1,0-0.1,0c-1,0-2,0.4-2.7,1.2c-0.7,0.7-1.1,1.7-1.1,2.7l0,0l0,0c0,0,0,0.1,0,0.1c0,0,0,0.1,0,0.1c0,0,0,0.1,0,0.1
				c0,0,0,0.1,0,0.1l0,0.6c0,0,0,0,0,0l0,0.1c0,0.1-0.1,0.2-0.1,0.3c0,0,0,0.1-0.1,0.2c0,0.1-0.1,0.2-0.1,0.3c0,0-0.1,0.1-0.1,0.1
				c-0.1,0.2-0.2,0.3-0.3,0.4C6.1,14.3,5.4,14.6,4.7,14.6L4.7,14.6z"/>
		</g>
	</g>
</g>
<path class="st0" d="M7.1,5.1c0,0.4-1.3,0.2-1.7,0.7C4.9,6.3,5.2,7.7,4.7,7.7C4.1,7.7,4.5,6.3,4,5.8C3.6,5.4,2.3,5.6,2.3,5.1
	c0-0.4,1.3-0.2,1.7-0.7C4.5,4,4.1,2.6,4.7,2.6c0.6,0,0.2,1.4,0.6,1.8C5.8,4.9,7.1,4.7,7.1,5.1z"/>
<path class="st0" d="M21.1,5.1c0,0.4-1.3,0.2-1.7,0.7c-0.4,0.4-0.1,1.8-0.6,1.8c-0.6,0-0.2-1.4-0.6-1.8c-0.4-0.4-1.7-0.3-1.7-0.7
	c0-0.4,1.3-0.2,1.7-0.7c0.4-0.4,0.1-1.8,0.6-1.8c0.6,0,0.2,1.4,0.6,1.8C19.8,4.9,21.1,4.7,21.1,5.1z"/>
<path class="st0" d="M21.1,19.1c0,0.4-1.3,0.2-1.7,0.7c-0.4,0.4-0.1,1.8-0.6,1.8c-0.6,0-0.2-1.4-0.6-1.8c-0.4-0.4-1.7-0.3-1.7-0.7
	c0-0.4,1.3-0.2,1.7-0.7c0.4-0.4,0.1-1.8,0.6-1.8c0.6,0,0.2,1.4,0.6,1.8C19.8,18.8,21.1,18.7,21.1,19.1z"/>
</svg>
