<?xml version="1.0" encoding="utf-8"?>
<!-- Generator: Adobe Illustrator 28.2.0, SVG Export Plug-In . SVG Version: 6.00 Build 0)  -->
<svg version="1.1" id="Layer_1" xmlns="http://www.w3.org/2000/svg" xmlns:xlink="http://www.w3.org/1999/xlink" x="0px" y="0px"
	 viewBox="0 0 20 20" style="enable-background:new 0 0 20 20;" xml:space="preserve">
<style type="text/css">
	.st0{fill:#3A0CA3;}
	.st1{fill:#F87000;}
</style>
<path class="st0" d="M8,10c0,0.4,0.1,0.7,0.3,1.1c0.2,0.3,0.5,0.6,0.9,0.7c0.4,0.1,0.8,0.2,1.2,0.1c0.4-0.1,0.8-0.3,1-0.5
	c0.3-0.3,0.5-0.6,0.6-1c0.1-0.4,0-0.8-0.1-1.1c-0.2-0.4-0.4-0.6-0.7-0.9c-0.3-0.2-0.7-0.3-1.1-0.3c-0.5,0-1.1,0.2-1.4,0.6
	C8.2,9,8,9.5,8,10z"/>
<path class="st1" d="M6.1,4.3c0,0.3-1.1,0.2-1.4,0.6C4.3,5.2,4.6,6.4,4.1,6.4C3.7,6.4,4,5.2,3.6,4.8C3.2,4.5,2.1,4.6,2.1,4.3
	c0-0.3,1.1-0.2,1.4-0.6C4,3.4,3.7,2.2,4.1,2.2c0.5,0,0.2,1.2,0.5,1.5C5,4.1,6.1,3.9,6.1,4.3z"/>
<path class="st1" d="M17.8,4.3c0,0.3-1.1,0.2-1.4,0.6c-0.4,0.4-0.1,1.5-0.5,1.5c-0.5,0-0.2-1.2-0.5-1.5c-0.4-0.4-1.4-0.2-1.4-0.6
	c0-0.3,1.1-0.2,1.4-0.6c0.4-0.4,0.1-1.5,0.5-1.5c0.5,0,0.2,1.2,0.5,1.5C16.7,4.1,17.8,3.9,17.8,4.3z"/>
<path class="st1" d="M17.8,15.9c0,0.3-1.1,0.2-1.4,0.6C16,16.8,16.3,18,15.8,18c-0.5,0-0.2-1.2-0.5-1.5c-0.4-0.4-1.4-0.2-1.4-0.6
	c0-0.3,1.1-0.2,1.4-0.6c0.4-0.4,0.1-1.5,0.5-1.5c0.5,0,0.2,1.2,0.5,1.5C16.7,15.7,17.8,15.6,17.8,15.9z"/>
<g>
	<g>
		<g>
			<g>
				<path class="st1" d="M4.2,18c-0.6,0-1.1-0.2-1.5-0.6c-0.4-0.4-0.6-1-0.6-1.5c0-0.6,0.2-1.1,0.6-1.5C2.7,14.2,2.8,14.1,3,14
					C3,14,3,14,3.1,14c0.1,0,0.2-0.1,0.2-0.1c0,0,0.1,0,0.1-0.1c0.1,0,0.2-0.1,0.3-0.1c0,0,0,0,0.1,0c0,0,0,0,0,0l0.5,0
					c0.1,0,0.1,0,0.2,0l0,0c0,0,0,0,0.1,0l0,0l0,0h0c0,0,0.1,0,0.1,0c0.8,0,1.7-0.4,2.2-1c0.6-0.6,0.9-1.4,0.9-2.3l0,0l0,0
					c0,0,0,0,0-0.1c0,0,0-0.1,0-0.1l0,0c0,0,0-0.1,0-0.1l0-0.5c0,0,0,0,0,0l0,0c0-0.1,0-0.2,0.1-0.3C8,9.2,8,9.2,8,9.1
					C8,9,8.1,9,8.1,8.9c0,0,0-0.1,0.1-0.1c0.1-0.1,0.2-0.2,0.2-0.3c0.4-0.4,1-0.6,1.5-0.6c0.6,0,1.1,0.2,1.5,0.6
					c0.8,0.8,0.8,2.2,0,3.1c-0.1,0.1-0.2,0.2-0.3,0.2c0,0-0.1,0-0.1,0.1c-0.1,0-0.2,0.1-0.2,0.1c0,0-0.1,0-0.1,0.1
					c-0.1,0-0.2,0.1-0.3,0.1l-0.1,0c0,0,0,0,0,0l-0.5,0c-0.1,0-0.1,0-0.2,0l0,0c0,0,0,0-0.1,0l0,0l0,0h0c0,0-0.1,0-0.1,0
					c-0.8,0-1.7,0.4-2.2,1c-0.6,0.6-0.9,1.4-0.9,2.3l0,0l0,0c0,0,0,0,0,0.1c0,0,0,0.1,0,0.1c0,0,0,0,0,0.1c0,0,0,0.1,0,0.1v0l0,0.5
					c0,0,0,0.1,0,0.1c0,0.1,0,0.2-0.1,0.3c0,0,0,0.1-0.1,0.1c0,0.1-0.1,0.2-0.1,0.2C6,17,6,17,6,17c-0.1,0.1-0.2,0.2-0.2,0.3
					C5.3,17.7,4.8,18,4.2,18L4.2,18z"/>
			</g>
			<path class="st1" d="M10,18c-0.6,0-1.1-0.2-1.5-0.6c-0.4-0.4-0.6-1-0.6-1.5c0-0.6,0.2-1.1,0.6-1.5c0.1-0.1,0.2-0.2,0.3-0.3
				c0,0,0.1,0,0.1-0.1c0.1,0,0.2-0.1,0.2-0.1c0,0,0.1,0,0.1-0.1c0.1,0,0.2-0.1,0.3-0.1c0,0,0.1,0,0.1,0l0.5,0c0.1,0,0.1,0,0.2,0l0,0
				c0,0,0,0,0.1,0c0,0,0,0,0,0l0,0l0,0c0,0,0.1,0,0.1,0c0.8,0,1.6-0.4,2.2-1c0.6-0.6,0.9-1.4,0.9-2.3l0-0.1l0,0c0,0,0,0,0,0
				c0,0,0,0,0-0.1l0-0.1c0,0,0-0.1,0-0.1l0-0.5c0,0,0-0.1,0-0.1c0-0.1,0.1-0.2,0.1-0.3c0,0,0-0.1,0.1-0.1C13.9,9,13.9,9,14,8.9l0,0
				c0,0,0-0.1,0.1-0.1c0.1-0.1,0.2-0.2,0.3-0.3c0.4-0.4,1-0.6,1.5-0.6c0.6,0,1.1,0.2,1.5,0.6c0.8,0.8,0.8,2.2,0,3.1
				c-0.1,0.1-0.2,0.2-0.3,0.2c0,0,0,0-0.1,0l0,0c-0.1,0-0.2,0.1-0.2,0.1c0,0-0.1,0-0.1,0.1c-0.1,0-0.2,0.1-0.3,0.1c0,0,0,0-0.1,0
				c0,0,0,0,0,0l-0.5,0c-0.1,0-0.1,0-0.2,0c0,0,0,0-0.1,0c0,0,0,0,0,0l0,0c0,0-0.1,0-0.1,0c-0.8,0-1.6,0.4-2.2,1
				c-0.6,0.6-0.9,1.4-0.9,2.3l0,0l0,0c0,0,0,0,0,0.1c0,0,0,0.1,0,0.1c0,0,0,0,0,0.1c0,0,0,0.1,0,0.1l0,0.5c0,0,0,0.1,0,0.1
				c0,0.1,0,0.2-0.1,0.3c0,0,0,0.1,0,0.1l0,0c0,0.1-0.1,0.2-0.1,0.2c0,0,0,0.1-0.1,0.1c-0.1,0.1-0.2,0.2-0.3,0.3
				C11.1,17.7,10.6,18,10,18L10,18z"/>
			<path class="st1" d="M4.2,12.1c-0.6,0-1.1-0.2-1.5-0.6C2.2,11.1,2,10.5,2,10c0-0.6,0.2-1.1,0.6-1.5C2.7,8.3,2.8,8.3,3,8.2
				c0,0,0.1,0,0.1-0.1C3.1,8.1,3.2,8,3.3,8c0,0,0.1,0,0.1-0.1c0.1,0,0.2-0.1,0.3-0.1l0.1,0c0,0,0,0,0,0l0.5,0c0.1,0,0.1,0,0.2,0l0,0
				c0,0,0,0,0.1,0c0,0,0,0,0,0l0,0l0,0c0,0,0.1,0,0.1,0c0.8,0,1.6-0.4,2.2-1c0.6-0.6,0.9-1.4,0.9-2.3l0,0l0,0c0,0,0-0.1,0-0.1
				c0,0,0,0,0-0.1l0-0.1c0,0,0-0.1,0-0.1l0-0.5l0,0v0c0,0,0-0.1,0-0.1c0-0.1,0.1-0.2,0.1-0.3c0,0,0-0.1,0.1-0.1C8,3.2,8.1,3.1,8.1,3
				l0,0c0,0,0-0.1,0.1-0.1c0.1-0.1,0.2-0.2,0.2-0.3C8.9,2.2,9.4,2,10,2c0.6,0,1.1,0.2,1.5,0.6c0.8,0.8,0.8,2.2,0,3.1
				c-0.1,0.1-0.2,0.2-0.3,0.2c0,0-0.1,0-0.1,0.1l0,0c-0.1,0-0.2,0.1-0.2,0.1c0,0-0.1,0-0.1,0.1c-0.1,0-0.2,0.1-0.3,0.1
				c0,0,0,0-0.1,0c0,0,0,0,0,0l-0.5,0c-0.1,0-0.1,0-0.2,0l0,0c0,0,0,0-0.1,0c0,0,0,0,0,0l0,0l0,0c0,0-0.1,0-0.1,0
				c-0.8,0-1.6,0.4-2.2,1C6.6,7.9,6.3,8.7,6.3,9.5l0,0l0,0c0,0,0,0,0,0.1c0,0,0,0.1,0,0.1c0,0,0,0,0,0.1c0,0,0,0.1,0,0.1l0,0.5
				c0,0,0,0,0,0l0,0c0,0.1,0,0.2-0.1,0.3c0,0,0,0.1-0.1,0.1c0,0.1-0.1,0.2-0.1,0.2c0,0,0,0.1-0.1,0.1c-0.1,0.1-0.2,0.2-0.2,0.3
				C5.3,11.9,4.8,12.1,4.2,12.1L4.2,12.1z"/>
		</g>
	</g>
</g>
</svg>
