<?xml version="1.0" encoding="UTF-8"?>
<svg xmlns="http://www.w3.org/2000/svg" xmlns:xlink="http://www.w3.org/1999/xlink" width="30px" height="30px" viewBox="0 0 30 30" version="1.1">
<g id="surface1">
<path style=" stroke:none;fill-rule:nonzero;fill:rgb(22.745098%,4.705882%,63.921571%);fill-opacity:1;" d="M 12 15 C 12 15.601562 12.148438 16.050781 12.449219 16.648438 C 12.75 17.101562 13.199219 17.550781 13.800781 17.699219 C 14.398438 17.851562 15 18 15.601562 17.851562 C 16.199219 17.699219 16.800781 17.398438 17.101562 17.101562 C 17.550781 16.648438 17.851562 16.199219 18 15.601562 C 18.148438 15 18 14.398438 17.851562 13.949219 C 17.550781 13.351562 17.25 13.050781 16.800781 12.601562 C 16.351562 12.300781 15.75 12.148438 15.148438 12.148438 C 14.398438 12.148438 13.5 12.449219 13.050781 13.050781 C 12.300781 13.5 12 14.25 12 15 Z M 12 15 "/>
<path style=" stroke:none;fill-rule:nonzero;fill:rgb(97.254902%,43.921569%,0%);fill-opacity:1;" d="M 9.148438 6.449219 C 9.148438 6.898438 7.5 6.75 7.050781 7.351562 C 6.449219 7.800781 6.898438 9.601562 6.148438 9.601562 C 5.550781 9.601562 6 7.800781 5.398438 7.199219 C 4.800781 6.75 3.148438 6.898438 3.148438 6.449219 C 3.148438 6 4.800781 6.148438 5.25 5.550781 C 6 5.101562 5.550781 3.300781 6.148438 3.300781 C 6.898438 3.300781 6.449219 5.101562 6.898438 5.550781 C 7.5 6.148438 9.148438 5.851562 9.148438 6.449219 Z M 9.148438 6.449219 "/>
<path style=" stroke:none;fill-rule:nonzero;fill:rgb(97.254902%,43.921569%,0%);fill-opacity:1;" d="M 26.699219 6.449219 C 26.699219 6.898438 25.050781 6.75 24.601562 7.351562 C 24 7.949219 24.449219 9.601562 23.851562 9.601562 C 23.101562 9.601562 23.550781 7.800781 23.101562 7.351562 C 22.5 6.75 21 7.050781 21 6.449219 C 21 6 22.648438 6.148438 23.101562 5.550781 C 23.699219 4.949219 23.25 3.300781 23.851562 3.300781 C 24.601562 3.300781 24.148438 5.101562 24.601562 5.550781 C 25.050781 6.148438 26.699219 5.851562 26.699219 6.449219 Z M 26.699219 6.449219 "/>
<path style=" stroke:none;fill-rule:nonzero;fill:rgb(97.254902%,43.921569%,0%);fill-opacity:1;" d="M 26.699219 23.851562 C 26.699219 24.300781 25.050781 24.148438 24.601562 24.75 C 24 25.199219 24.449219 27 23.699219 27 C 22.949219 27 23.398438 25.199219 22.949219 24.75 C 22.351562 24.148438 20.851562 24.449219 20.851562 23.851562 C 20.851562 23.398438 22.5 23.550781 22.949219 22.949219 C 23.550781 22.351562 23.101562 20.699219 23.699219 20.699219 C 24.449219 20.699219 24 22.5 24.449219 22.949219 C 25.050781 23.550781 26.699219 23.398438 26.699219 23.851562 Z M 26.699219 23.851562 "/>
<path style=" stroke:none;fill-rule:nonzero;fill:rgb(97.254902%,43.921569%,0%);fill-opacity:1;" d="M 6.300781 27 C 5.398438 27 4.648438 26.699219 4.050781 26.101562 C 3.449219 25.5 3.148438 24.601562 3.148438 23.851562 C 3.148438 22.949219 3.449219 22.199219 4.050781 21.601562 C 4.050781 21.300781 4.199219 21.148438 4.5 21 C 4.5 21 4.5 21 4.648438 21 C 4.800781 21 4.949219 20.851562 4.949219 20.851562 C 4.949219 20.851562 5.101562 20.851562 5.101562 20.699219 C 5.25 20.699219 5.398438 20.550781 5.550781 20.550781 C 5.550781 20.550781 5.550781 20.550781 5.699219 20.550781 L 6.449219 20.550781 C 6.601562 20.550781 6.601562 20.550781 6.75 20.550781 C 6.75 20.550781 6.75 20.550781 6.898438 20.550781 C 6.898438 20.550781 7.050781 20.550781 7.050781 20.550781 C 8.25 20.550781 9.601562 19.949219 10.351562 19.050781 C 11.25 18.148438 11.699219 16.949219 11.699219 15.601562 C 11.699219 15.601562 11.699219 15.601562 11.699219 15.449219 C 11.699219 15.449219 11.699219 15.300781 11.699219 15.300781 C 11.699219 15.300781 11.699219 15.148438 11.699219 15.148438 L 11.699219 14.398438 C 11.699219 14.25 11.699219 14.101562 11.851562 13.949219 C 12 13.800781 12 13.800781 12 13.648438 C 12 13.5 12.148438 13.5 12.148438 13.351562 C 12.148438 13.351562 12.148438 13.199219 12.300781 13.199219 C 12.449219 13.050781 12.601562 12.898438 12.601562 12.75 C 13.199219 12.148438 14.101562 11.851562 14.851562 11.851562 C 15.75 11.851562 16.5 12.148438 17.101562 12.75 C 18.300781 13.949219 18.300781 16.050781 17.101562 17.398438 C 16.949219 17.550781 16.800781 17.699219 16.648438 17.699219 C 16.648438 17.699219 16.5 17.699219 16.5 17.851562 C 16.351562 17.851562 16.199219 18 16.199219 18 C 16.199219 18 16.050781 18 16.050781 18.148438 C 15.898438 18.148438 15.75 18.300781 15.601562 18.300781 L 14.699219 18.300781 C 14.550781 18.300781 14.550781 18.300781 14.398438 18.300781 C 14.398438 18.300781 14.398438 18.300781 14.25 18.300781 C 14.25 18.300781 14.101562 18.300781 14.101562 18.300781 C 12.898438 18.300781 11.550781 18.898438 10.800781 19.800781 C 9.898438 20.699219 9.449219 21.898438 9.449219 23.25 C 9.449219 23.25 9.449219 23.25 9.449219 23.398438 C 9.449219 23.398438 9.449219 23.550781 9.449219 23.550781 C 9.449219 23.550781 9.449219 23.550781 9.449219 23.699219 C 9.449219 23.699219 9.449219 23.851562 9.449219 23.851562 L 9.449219 24.601562 C 9.449219 24.601562 9.449219 24.75 9.449219 24.75 C 9.449219 24.898438 9.449219 25.050781 9.300781 25.199219 C 9.300781 25.199219 9.300781 25.351562 9.148438 25.351562 C 9.148438 25.5 9 25.648438 9 25.648438 C 9 25.5 9 25.5 9 25.5 C 8.851562 25.648438 8.699219 25.800781 8.699219 25.949219 C 7.949219 26.550781 7.199219 27 6.300781 27 Z M 6.300781 27 "/>
<path style=" stroke:none;fill-rule:nonzero;fill:rgb(97.254902%,43.921569%,0%);fill-opacity:1;" d="M 15 27 C 14.101562 27 13.351562 26.699219 12.75 26.101562 C 12.148438 25.5 11.851562 24.601562 11.851562 23.851562 C 11.851562 22.949219 12.148438 22.199219 12.75 21.601562 C 12.898438 21.449219 13.050781 21.300781 13.199219 21.148438 C 13.199219 21.148438 13.351562 21.148438 13.351562 21 C 13.5 21 13.648438 20.851562 13.648438 20.851562 C 13.648438 20.851562 13.800781 20.851562 13.800781 20.699219 C 13.949219 20.699219 14.101562 20.550781 14.25 20.550781 C 14.25 20.550781 14.398438 20.550781 14.398438 20.550781 L 15.148438 20.550781 C 15.300781 20.550781 15.300781 20.550781 15.449219 20.550781 C 15.449219 20.550781 15.449219 20.550781 15.601562 20.550781 C 15.601562 20.550781 15.75 20.550781 15.75 20.550781 C 16.949219 20.550781 18.148438 19.949219 19.050781 19.050781 C 19.949219 18.148438 20.398438 16.949219 20.398438 15.601562 L 20.398438 15.449219 C 20.398438 15.449219 20.398438 15.449219 20.398438 15.300781 L 20.398438 15.148438 C 20.398438 15.148438 20.398438 15 20.398438 15 L 20.398438 14.25 C 20.398438 14.25 20.398438 14.101562 20.398438 14.101562 C 20.398438 13.949219 20.550781 13.800781 20.550781 13.648438 C 20.550781 13.648438 20.550781 13.5 20.699219 13.5 C 20.851562 13.5 20.851562 13.5 21 13.351562 C 21 13.351562 21 13.199219 21.148438 13.199219 C 21.300781 13.050781 21.449219 12.898438 21.601562 12.75 C 22.199219 12.148438 23.101562 11.851562 23.851562 11.851562 C 24.75 11.851562 25.5 12.148438 26.101562 12.75 C 27.300781 13.949219 27.300781 16.050781 26.101562 17.398438 C 25.949219 17.550781 25.800781 17.699219 25.648438 17.699219 C 25.648438 17.699219 25.648438 17.699219 25.5 17.699219 C 25.351562 17.699219 25.199219 17.851562 25.199219 17.851562 C 25.199219 17.851562 25.050781 17.851562 25.050781 18 C 24.898438 18 24.75 18.148438 24.601562 18.148438 C 24.601562 18.148438 24.601562 18.148438 24.449219 18.148438 L 23.699219 18.148438 C 23.550781 18.148438 23.550781 18.148438 23.398438 18.148438 C 23.398438 18.148438 23.398438 18.148438 23.25 18.148438 C 23.25 18.148438 23.101562 18.148438 23.101562 18.148438 C 21.898438 18.148438 20.699219 18.75 19.800781 19.648438 C 18.898438 20.550781 18.449219 21.75 18.449219 23.101562 C 18.449219 23.101562 18.449219 23.101562 18.449219 23.25 C 18.449219 23.25 18.449219 23.398438 18.449219 23.398438 C 18.449219 23.398438 18.449219 23.398438 18.449219 23.550781 C 18.449219 23.550781 18.449219 23.699219 18.449219 23.699219 L 18.449219 24.449219 C 18.449219 24.449219 18.449219 24.601562 18.449219 24.601562 C 18.449219 24.75 18.449219 24.898438 18.300781 25.050781 C 18.300781 25.050781 18.300781 25.199219 18.300781 25.199219 C 18.300781 25.351562 18.148438 25.5 18.148438 25.5 C 18.148438 25.5 18.148438 25.648438 18 25.648438 C 17.851562 25.800781 17.699219 25.949219 17.550781 26.101562 C 16.648438 26.550781 15.898438 27 15 27 Z M 15 27 "/>
<path style=" stroke:none;fill-rule:nonzero;fill:rgb(97.254902%,43.921569%,0%);fill-opacity:1;" d="M 6.300781 18.148438 C 5.398438 18.148438 4.648438 17.851562 4.050781 17.25 C 3.300781 16.648438 3 15.75 3 15 C 3 14.101562 3.300781 13.351562 3.898438 12.75 C 4.050781 12.449219 4.199219 12.449219 4.5 12.300781 C 4.5 12.300781 4.648438 12.300781 4.648438 12.148438 C 4.648438 12.148438 4.800781 12 4.949219 12 C 4.949219 12 5.101562 12 5.101562 11.851562 C 5.25 11.851562 5.398438 11.699219 5.550781 11.699219 L 6.449219 11.699219 C 6.601562 11.699219 6.601562 11.699219 6.75 11.699219 C 6.75 11.699219 6.75 11.699219 6.898438 11.699219 C 6.898438 11.699219 7.050781 11.699219 7.050781 11.699219 C 8.25 11.699219 9.449219 11.101562 10.351562 10.199219 C 11.25 9.300781 11.699219 8.101562 11.699219 6.75 C 11.699219 6.75 11.699219 6.601562 11.699219 6.601562 C 11.699219 6.601562 11.699219 6.601562 11.699219 6.449219 L 11.699219 6.300781 C 11.699219 6.300781 11.699219 6.148438 11.699219 6.148438 L 11.699219 5.398438 C 11.699219 5.398438 11.699219 5.25 11.699219 5.25 C 11.699219 5.101562 11.851562 4.949219 11.851562 4.800781 C 11.851562 4.800781 11.851562 4.648438 12 4.648438 C 12 4.800781 12.148438 4.648438 12.148438 4.5 C 12.148438 4.5 12.148438 4.351562 12.300781 4.351562 C 12.449219 4.199219 12.601562 4.050781 12.601562 3.898438 C 13.351562 3.300781 14.101562 3 15 3 C 15.898438 3 16.648438 3.300781 17.25 3.898438 C 18.449219 5.101562 18.449219 7.199219 17.25 8.550781 C 17.101562 8.699219 16.949219 8.851562 16.800781 8.851562 C 16.800781 8.851562 16.648438 8.851562 16.648438 9 C 16.5 9 16.351562 9.148438 16.351562 9.148438 C 16.351562 9.148438 16.199219 9.148438 16.199219 9.300781 C 16.050781 9.300781 15.898438 9.449219 15.75 9.449219 C 15.75 9.449219 15.75 9.449219 15.601562 9.449219 L 14.851562 9.449219 C 14.699219 9.449219 14.699219 9.449219 14.550781 9.449219 C 14.550781 9.449219 14.550781 9.449219 14.398438 9.449219 C 14.398438 9.449219 14.25 9.449219 14.25 9.449219 C 13.050781 9.449219 11.851562 10.050781 10.949219 10.949219 C 9.898438 11.851562 9.449219 13.050781 9.449219 14.25 C 9.449219 14.25 9.449219 14.25 9.449219 14.398438 C 9.449219 14.398438 9.449219 14.550781 9.449219 14.550781 C 9.449219 14.550781 9.449219 14.550781 9.449219 14.699219 C 9.449219 14.699219 9.449219 14.851562 9.449219 14.851562 L 9.449219 15.601562 C 9.449219 15.75 9.449219 15.898438 9.300781 16.050781 C 9.300781 16.050781 9.300781 16.199219 9.148438 16.199219 C 9.148438 16.351562 9 16.5 9 16.5 C 9 16.5 9 16.648438 8.851562 16.648438 C 8.699219 16.800781 8.550781 16.949219 8.550781 17.101562 C 7.949219 17.851562 7.199219 18.148438 6.300781 18.148438 Z M 6.300781 18.148438 "/>
</g>
</svg>
